<?xml version="1.0" standalone="no"?>
<!DOCTYPE svg PUBLIC "-//W3C//DTD SVG 20010904//EN"
 "http://www.w3.org/TR/2001/REC-SVG-20010904/DTD/svg10.dtd">
<svg version="1.0" xmlns="http://www.w3.org/2000/svg"
 width="200.000000pt" height="200.000000pt" viewBox="0 0 200.000000 200.000000"
 preserveAspectRatio="xMidYMid meet">

<g transform="translate(0.000000,200.000000) scale(0.100000,-0.100000)"
fill="#fff" stroke="none">
<path d="M811 1916 c-10 -11 -11 -52 -5 -165 7 -159 6 -163 -37 -141 -14 8
-19 21 -19 55 0 37 3 44 23 48 12 2 -3 4 -33 4 -30 0 -45 -2 -33 -4 19 -4 22
-12 25 -56 3 -48 6 -53 36 -67 23 -11 59 -53 117 -135 47 -66 85 -124 85 -128
0 -5 -9 -22 -21 -38 -19 -26 -26 -29 -80 -29 -33 0 -59 -4 -59 -10 0 -5 23
-10 50 -10 28 0 50 -2 50 -5 0 -2 -25 -39 -55 -81 -30 -42 -55 -81 -55 -85 0
-23 20 -2 78 81 l63 90 48 0 48 0 64 -90 c56 -79 79 -104 79 -84 0 4 -25 42
-55 85 -30 43 -55 81 -55 84 0 3 23 5 50 5 71 0 62 18 -11 22 -55 3 -64 6 -85
33 l-23 30 89 125 c65 93 97 130 124 143 34 16 36 19 36 66 0 43 3 50 23 54
12 2 -3 5 -33 5 -42 1 -50 -1 -32 -8 30 -13 32 -84 3 -100 -39 -21 -41 -15
-41 149 0 145 -7 190 -25 161 -8 -14 -298 -13 -311 0 -8 8 -15 6 -23 -4z m329
-235 l0 -88 -31 -7 c-40 -8 -193 -8 -241 0 l-38 7 0 82 c0 45 3 85 7 88 3 4
73 7 155 7 l148 0 0 -89z m-69 -223 c-42 -59 -79 -108 -82 -108 -3 0 -20 21
-38 48 -19 26 -53 74 -77 107 l-42 60 157 0 157 0 -75 -107z m-61 -178 c10
-18 8 -20 -20 -20 -28 0 -30 2 -20 20 6 11 15 20 20 20 5 0 14 -9 20 -20z"/>
<path d="M105 1415 c28 -272 208 -515 480 -645 94 -45 221 -87 232 -77 2 3
-11 22 -29 43 -28 33 -634 691 -676 734 -12 13 -13 6 -7 -55z"/>
<path d="M1532 1087 c-216 -216 -392 -396 -392 -401 0 -12 84 3 175 31 328
102 560 360 606 673 6 45 10 83 7 85 -2 2 -180 -172 -396 -388z"/>
<path d="M1255 630 c-4 -7 -3 -16 3 -22 14 -14 47 -6 47 12 0 18 -40 26 -50
10z"/>
<path d="M466 533 c-4 -43 -9 -97 -12 -121 -5 -41 -4 -43 18 -40 18 2 23 10
25 38 2 19 6 60 9 90 l6 55 33 -90 c44 -122 58 -122 100 5 l32 95 6 -64 c4
-35 7 -79 7 -98 0 -30 3 -34 23 -31 15 2 21 9 20 23 -1 11 -5 64 -8 118 l-7
97 -32 0 c-31 0 -32 -2 -60 -86 -15 -47 -31 -83 -34 -79 -4 3 -19 41 -33 83
-24 72 -28 77 -56 80 l-31 3 -6 -78z"/>
<path d="M840 564 c-29 -12 -40 -38 -40 -100 0 -77 18 -94 96 -94 70 0 89 22
89 101 0 41 -5 63 -17 75 -17 17 -100 29 -128 18z m100 -94 l0 -70 -50 0 -50
0 0 63 c0 35 3 67 7 70 3 4 26 7 50 7 l43 0 0 -70z"/>
<path d="M1278 563 c-16 -4 -18 -17 -18 -99 0 -87 1 -94 20 -94 19 0 20 7 20
100 0 55 -1 99 -2 99 -2 -1 -11 -3 -20 -6z"/>
<path d="M1420 563 c-39 -15 -50 -36 -50 -95 0 -76 20 -98 89 -98 57 0 81 7
81 24 0 8 -19 11 -65 8 -64 -4 -65 -4 -65 22 0 24 3 26 48 26 59 0 92 21 92
59 0 16 -7 34 -15 41 -17 14 -92 23 -115 13z m90 -53 c0 -23 -5 -31 -24 -36
-37 -9 -70 -1 -74 19 -6 29 17 47 59 47 37 0 39 -2 39 -30z"/>
<path d="M1022 548 c3 -7 17 -50 32 -95 27 -82 28 -83 61 -83 33 0 34 1 61 83
15 45 29 88 32 95 3 10 -2 13 -18 10 -19 -2 -28 -16 -46 -72 -13 -38 -26 -71
-28 -73 -2 -2 -15 29 -28 69 -20 60 -29 74 -48 76 -16 3 -21 0 -18 -10z"/>
<path d="M657 248 c-20 -51 -39 -101 -43 -111 -5 -13 -1 -17 19 -17 18 0 27 7
31 25 6 23 11 25 66 25 55 0 61 -2 70 -25 7 -17 17 -25 34 -25 l24 0 -43 108
-43 107 -39 3 -39 3 -37 -93z m101 2 l21 -50 -46 0 c-32 0 -44 4 -40 13 2 6
10 29 18 50 7 20 16 37 20 37 3 0 16 -22 27 -50z"/>
<path d="M910 174 c0 -111 2 -125 16 -120 9 3 20 6 25 6 5 0 9 13 9 29 0 28 1
28 50 23 61 -6 95 14 105 58 9 40 -1 95 -21 115 -18 17 -105 21 -134 5 -13 -7
-21 -7 -25 0 -18 30 -25 -1 -25 -116z m158 34 l-3 -63 -52 -3 -53 -3 0 65 0
66 55 0 56 0 -3 -62z"/>
<path d="M1190 174 c0 -111 2 -125 16 -120 9 3 20 6 25 6 5 0 9 13 9 29 0 28
1 28 50 23 63 -6 95 13 104 62 8 44 -9 112 -30 120 -25 10 -103 7 -124 -4 -13
-7 -21 -7 -25 0 -18 30 -25 -1 -25 -116z m150 31 l0 -65 -50 0 -50 0 0 65 0
65 50 0 50 0 0 -65z"/>
</g>
</svg>
